<svg width="50" height="50" viewBox="0 0 50 50" fill="none" xmlns="http://www.w3.org/2000/svg">
<path d="M37.5 5V0H12.5V5H0V22.5C0 25.25 2.25 27.5 5 27.5H12.75C13.2429 29.9009 14.4295 32.1044 16.1626 33.8374C17.8956 35.5705 20.0991 36.7571 22.5 37.25V42.7C15 43.85 15 50 15 50H35C35 50 35 43.85 27.5 42.7V37.25C29.9009 36.7571 32.1044 35.5705 33.8374 33.8374C35.5705 32.1044 36.7571 29.9009 37.25 27.5H45C47.75 27.5 50 25.25 50 22.5V5H37.5ZM5 22.5V10H12.5V22.5H5ZM32.5 25C32.5 29.125 29.125 32.5 25 32.5C20.875 32.5 17.5 29.125 17.5 25V5H32.5V25ZM45 22.5H37.5V10H45V22.5Z" fill="black"/>
</svg>
