<svg width="50" height="50" viewBox="0 0 50 50" fill="none" xmlns="http://www.w3.org/2000/svg">
<path fill-rule="evenodd" clip-rule="evenodd" d="M33.251 19.7395C33.9916 19.79 34.9592 19.7917 36.458 19.7917C37.9568 19.7917 38.9244 19.79 39.665 19.7395C40.3775 19.6909 40.6488 19.6077 40.7789 19.5538C41.5446 19.2366 42.153 18.6283 42.4701 17.8626C42.524 17.7325 42.6072 17.4612 42.6558 16.7487C42.7063 16.0081 42.708 15.0405 42.708 13.5417C42.708 12.0429 42.7063 11.0752 42.6558 10.3347C42.6072 9.62219 42.524 9.35084 42.4701 9.2208C42.153 8.45509 41.5446 7.84673 40.7789 7.52956C40.6488 7.4757 40.3775 7.39252 39.665 7.34391C38.9244 7.29338 37.9568 7.29169 36.458 7.29169C34.9592 7.29169 33.9916 7.29338 33.251 7.34391C32.5385 7.39252 32.2672 7.4757 32.1371 7.52956C31.3714 7.84673 30.7631 8.45509 30.4459 9.2208C30.392 9.35084 30.3088 9.62219 30.2602 10.3347C30.2097 11.0752 30.208 12.0429 30.208 13.5417C30.208 15.0405 30.2097 16.0081 30.2602 16.7487C30.3088 17.4612 30.392 17.7325 30.4459 17.8626C30.7631 18.6283 31.3714 19.2366 32.1371 19.5538C32.2672 19.6077 32.5385 19.6909 33.251 19.7395ZM27.5588 8.02492C27.083 9.17348 27.083 10.6296 27.083 13.5417C27.083 16.4538 27.083 17.9099 27.5588 19.0585C28.1931 20.5899 29.4098 21.8066 30.9412 22.4409C32.0898 22.9167 33.5459 22.9167 36.458 22.9167C39.3701 22.9167 40.8262 22.9167 41.9748 22.4409C43.5062 21.8066 44.7229 20.5899 45.3573 19.0585C45.833 17.9099 45.833 16.4538 45.833 13.5417C45.833 10.6296 45.833 9.17348 45.3573 8.02492C44.7229 6.49349 43.5062 5.27678 41.9748 4.64244C40.8262 4.16669 39.3701 4.16669 36.458 4.16669C33.5459 4.16669 32.0898 4.16669 30.9412 4.64244C29.4098 5.27678 28.1931 6.49349 27.5588 8.02492Z" fill="black"/>
<path fill-rule="evenodd" clip-rule="evenodd" d="M10.335 19.7395C11.0756 19.79 12.0432 19.7917 13.542 19.7917C15.0408 19.7917 16.0084 19.79 16.749 19.7395C17.4615 19.6909 17.7328 19.6077 17.8629 19.5538C18.6286 19.2366 19.2369 18.6283 19.5541 17.8626C19.608 17.7325 19.6912 17.4612 19.7398 16.7487C19.7903 16.0081 19.792 15.0405 19.792 13.5417C19.792 12.0429 19.7903 11.0752 19.7398 10.3347C19.6912 9.62219 19.608 9.35084 19.5541 9.2208C19.2369 8.45509 18.6286 7.84673 17.8629 7.52956C17.7328 7.4757 17.4615 7.39252 16.749 7.34391C16.0084 7.29338 15.0408 7.29169 13.542 7.29169C12.0432 7.29169 11.0756 7.29338 10.335 7.34391C9.6225 7.39252 9.35115 7.4757 9.22111 7.52956C8.45539 7.84673 7.84704 8.45509 7.52987 9.2208C7.476 9.35084 7.39283 9.62219 7.34421 10.3347C7.29368 11.0752 7.29199 12.0429 7.29199 13.5417C7.29199 15.0405 7.29368 16.0081 7.34421 16.7487C7.39283 17.4612 7.476 17.7325 7.52987 17.8626C7.84704 18.6283 8.45539 19.2366 9.22111 19.5538C9.35115 19.6077 9.6225 19.6909 10.335 19.7395ZM4.64275 8.02492C4.16699 9.17348 4.16699 10.6296 4.16699 13.5417C4.16699 16.4538 4.16699 17.9099 4.64275 19.0585C5.27708 20.5899 6.4938 21.8066 8.02522 22.4409C9.17379 22.9167 10.6299 22.9167 13.542 22.9167C16.4541 22.9167 17.9102 22.9167 19.0588 22.4409C20.5902 21.8066 21.8069 20.5899 22.4412 19.0585C22.917 17.9099 22.917 16.4538 22.917 13.5417C22.917 10.6296 22.917 9.17348 22.4412 8.02492C21.8069 6.49349 20.5902 5.27678 19.0588 4.64244C17.9102 4.16669 16.4541 4.16669 13.542 4.16669C10.6299 4.16669 9.17379 4.16669 8.02522 4.64244C6.4938 5.27678 5.27708 6.49349 4.64275 8.02492Z" fill="black"/>
<path fill-rule="evenodd" clip-rule="evenodd" d="M10.335 42.6561C11.0756 42.7066 12.0432 42.7083 13.542 42.7083C15.0408 42.7083 16.0084 42.7066 16.749 42.6561C17.4615 42.6075 17.7328 42.5243 17.8629 42.4704C18.6286 42.1533 19.2369 41.5449 19.5541 40.7792C19.608 40.6492 19.6912 40.3778 19.7398 39.6653C19.7903 38.9247 19.792 37.9571 19.792 36.4583C19.792 34.9595 19.7903 33.9919 19.7398 33.2513C19.6912 32.5388 19.608 32.2675 19.5541 32.1374C19.2369 31.3717 18.6286 30.7634 17.8629 30.4462C17.7328 30.3923 17.4615 30.3091 16.749 30.2605C16.0084 30.21 15.0408 30.2083 13.542 30.2083C12.0432 30.2083 11.0756 30.21 10.335 30.2605C9.6225 30.3091 9.35115 30.3923 9.22111 30.4462C8.45539 30.7634 7.84704 31.3717 7.52987 32.1374C7.476 32.2675 7.39283 32.5388 7.34421 33.2513C7.29368 33.9919 7.29199 34.9595 7.29199 36.4583C7.29199 37.9571 7.29368 38.9247 7.34421 39.6653C7.39283 40.3778 7.476 40.6492 7.52987 40.7792C7.84704 41.5449 8.45539 42.1533 9.22111 42.4704C9.35115 42.5243 9.6225 42.6075 10.335 42.6561ZM4.64275 30.9415C4.16699 32.0901 4.16699 33.5462 4.16699 36.4583C4.16699 39.3704 4.16699 40.8265 4.64275 41.9751C5.27708 43.5065 6.4938 44.7232 8.02522 45.3576C9.17379 45.8333 10.6299 45.8333 13.542 45.8333C16.4541 45.8333 17.9102 45.8333 19.0588 45.3576C20.5902 44.7232 21.8069 43.5065 22.4412 41.9751C22.917 40.8265 22.917 39.3704 22.917 36.4583C22.917 33.5462 22.917 32.0901 22.4412 30.9415C21.8069 29.4101 20.5902 28.1934 19.0588 27.5591C17.9102 27.0833 16.4541 27.0833 13.542 27.0833C10.6299 27.0833 9.17379 27.0833 8.02522 27.5591C6.4938 28.1934 5.27708 29.4101 4.64275 30.9415Z" fill="black"/>
<path fill-rule="evenodd" clip-rule="evenodd" d="M33.251 42.6561C33.9916 42.7066 34.9592 42.7083 36.458 42.7083C37.9568 42.7083 38.9244 42.7066 39.665 42.6561C40.3775 42.6075 40.6488 42.5243 40.7789 42.4704C41.5446 42.1533 42.153 41.5449 42.4701 40.7792C42.524 40.6492 42.6072 40.3778 42.6558 39.6653C42.7063 38.9247 42.708 37.9571 42.708 36.4583C42.708 34.9595 42.7063 33.9919 42.6558 33.2513C42.6072 32.5388 42.524 32.2675 42.4701 32.1374C42.153 31.3717 41.5446 30.7634 40.7789 30.4462C40.6488 30.3923 40.3775 30.3091 39.665 30.2605C38.9244 30.21 37.9568 30.2083 36.458 30.2083C34.9592 30.2083 33.9916 30.21 33.251 30.2605C32.5385 30.3091 32.2672 30.3923 32.1371 30.4462C31.3714 30.7634 30.7631 31.3717 30.4459 32.1374C30.392 32.2675 30.3088 32.5388 30.2602 33.2513C30.2097 33.9919 30.208 34.9595 30.208 36.4583C30.208 37.9571 30.2097 38.9247 30.2602 39.6653C30.3088 40.3778 30.392 40.6492 30.4459 40.7792C30.7631 41.5449 31.3714 42.1533 32.1371 42.4704C32.2672 42.5243 32.5385 42.6075 33.251 42.6561ZM27.5588 30.9415C27.083 32.0901 27.083 33.5462 27.083 36.4583C27.083 39.3704 27.083 40.8265 27.5588 41.9751C28.1931 43.5065 29.4098 44.7232 30.9412 45.3576C32.0898 45.8333 33.5459 45.8333 36.458 45.8333C39.3701 45.8333 40.8262 45.8333 41.9748 45.3576C43.5062 44.7232 44.7229 43.5065 45.3573 41.9751C45.833 40.8265 45.833 39.3704 45.833 36.4583C45.833 33.5462 45.833 32.0901 45.3573 30.9415C44.7229 29.4101 43.5062 28.1934 41.9748 27.5591C40.8262 27.0833 39.3701 27.0833 36.458 27.0833C33.5459 27.0833 32.0898 27.0833 30.9412 27.5591C29.4098 28.1934 28.1931 29.4101 27.5588 30.9415Z" fill="black"/>
</svg>
