<svg width="48" height="48" viewBox="0 0 48 48" fill="none" xmlns="http://www.w3.org/2000/svg">
<path d="M24 3C22.8065 3 21.6619 3.47411 20.818 4.31802C19.9741 5.16193 19.5 6.30653 19.5 7.5C19.5 8.69347 19.9741 9.83807 20.818 10.682C21.6619 11.5259 22.8065 12 24 12C25.1935 12 26.3381 11.5259 27.182 10.682C28.0259 9.83807 28.5 8.69347 28.5 7.5C28.5 6.30653 28.0259 5.16193 27.182 4.31802C26.3381 3.47411 25.1935 3 24 3ZM16.5 7.5C16.5 5.51088 17.2902 3.60322 18.6967 2.1967C20.1032 0.790176 22.0109 0 24 0C25.9891 0 27.8968 0.790176 29.3033 2.1967C30.7098 3.60322 31.5 5.51088 31.5 7.5C31.5 9.48912 30.7098 11.3968 29.3033 12.8033C27.8968 14.2098 25.9891 15 24 15C22.0109 15 20.1032 14.2098 18.6967 12.8033C17.2902 11.3968 16.5 9.48912 16.5 7.5ZM40.5 6C39.7043 6 38.9413 6.31607 38.3787 6.87868C37.8161 7.44129 37.5 8.20435 37.5 9C37.5 9.79565 37.8161 10.5587 38.3787 11.1213C38.9413 11.6839 39.7043 12 40.5 12C41.2957 12 42.0587 11.6839 42.6213 11.1213C43.1839 10.5587 43.5 9.79565 43.5 9C43.5 8.20435 43.1839 7.44129 42.6213 6.87868C42.0587 6.31607 41.2957 6 40.5 6ZM34.5 9C34.5 7.4087 35.1321 5.88258 36.2574 4.75736C37.3826 3.63214 38.9087 3 40.5 3C42.0913 3 43.6174 3.63214 44.7426 4.75736C45.8679 5.88258 46.5 7.4087 46.5 9C46.5 10.5913 45.8679 12.1174 44.7426 13.2426C43.6174 14.3679 42.0913 15 40.5 15C38.9087 15 37.3826 14.3679 36.2574 13.2426C35.1321 12.1174 34.5 10.5913 34.5 9ZM4.5 9C4.5 8.20435 4.81607 7.44129 5.37868 6.87868C5.94129 6.31607 6.70435 6 7.5 6C8.29565 6 9.05871 6.31607 9.62132 6.87868C10.1839 7.44129 10.5 8.20435 10.5 9C10.5 9.79565 10.1839 10.5587 9.62132 11.1213C9.05871 11.6839 8.29565 12 7.5 12C6.70435 12 5.94129 11.6839 5.37868 11.1213C4.81607 10.5587 4.5 9.79565 4.5 9ZM7.5 3C5.9087 3 4.38258 3.63214 3.25736 4.75736C2.13214 5.88258 1.5 7.4087 1.5 9C1.5 10.5913 2.13214 12.1174 3.25736 13.2426C4.38258 14.3679 5.9087 15 7.5 15C9.0913 15 10.6174 14.3679 11.7426 13.2426C12.8679 12.1174 13.5 10.5913 13.5 9C13.5 7.4087 12.8679 5.88258 11.7426 4.75736C10.6174 3.63214 9.0913 3 7.5 3ZM9.3 38.994C8.4877 39.0347 7.67561 38.9098 6.91307 38.6269C6.15054 38.344 5.45348 37.909 4.86424 37.3484C4.27501 36.7878 3.8059 36.1132 3.48542 35.3657C3.16495 34.6182 2.9998 33.8133 3 33V21.75C3 21.5511 3.07902 21.3603 3.21967 21.2197C3.36032 21.079 3.55109 21 3.75 21H9.042C9.162 19.899 9.552 18.876 10.137 18H3.75C1.68 18 5.35165e-08 19.68 5.35165e-08 21.75V33C-0.000139998 34.2844 0.274616 35.5539 0.805805 36.7232C1.33699 37.8926 2.11231 38.9347 3.07966 39.7796C4.04702 40.6245 5.18399 41.2525 6.4142 41.6215C7.6444 41.9905 8.93934 42.092 10.212 41.919C9.80822 40.978 9.50261 39.9978 9.3 38.994ZM37.788 41.919C39.0607 42.092 40.3556 41.9905 41.5858 41.6215C42.816 41.2525 43.953 40.6245 44.9203 39.7796C45.8877 38.9347 46.663 37.8926 47.1942 36.7232C47.7254 35.5539 48.0001 34.2844 48 33V21.75C48 19.68 46.32 18 44.25 18H37.863C38.451 18.876 38.838 19.899 38.958 21H44.25C44.4489 21 44.6397 21.079 44.7803 21.2197C44.921 21.3603 45 21.5511 45 21.75V33C45.0002 33.8133 44.8351 34.6182 44.5146 35.3657C44.1941 36.1132 43.725 36.7878 43.1358 37.3484C42.5465 37.909 41.8495 38.344 41.0869 38.6269C40.3244 38.9098 39.5123 39.0347 38.7 38.994C38.4973 39.9978 38.1917 40.9779 37.788 41.919ZM15.75 18C13.68 18 12 19.68 12 21.75V36C12 39.1826 13.2643 42.2348 15.5147 44.4853C17.7652 46.7357 20.8174 48 24 48C27.1826 48 30.2348 46.7357 32.4853 44.4853C34.7357 42.2348 36 39.1826 36 36V21.75C36 19.68 34.32 18 32.25 18H15.75ZM15 21.75C15 21.5511 15.079 21.3603 15.2197 21.2197C15.3603 21.079 15.5511 21 15.75 21H32.25C32.4489 21 32.6397 21.079 32.7803 21.2197C32.921 21.3603 33 21.5511 33 21.75V36C33 38.3869 32.0518 40.6761 30.364 42.364C28.6761 44.0518 26.3869 45 24 45C21.6131 45 19.3239 44.0518 17.636 42.364C15.9482 40.6761 15 38.3869 15 36V21.75Z" fill="black"/>
</svg>
