<svg width="60" height="60" viewBox="0 0 60 60" fill="none" xmlns="http://www.w3.org/2000/svg">
<path d="M30 32.5C31.3807 32.5 32.5 31.3807 32.5 30C32.5 28.6193 31.3807 27.5 30 27.5C28.6193 27.5 27.5 28.6193 27.5 30C27.5 31.3807 28.6193 32.5 30 32.5Z" stroke="black" stroke-opacity="0.5" stroke-width="2" stroke-linecap="round" stroke-linejoin="round"/>
<path d="M47.5 32.5C48.8807 32.5 50 31.3807 50 30C50 28.6193 48.8807 27.5 47.5 27.5C46.1193 27.5 45 28.6193 45 30C45 31.3807 46.1193 32.5 47.5 32.5Z" stroke="black" stroke-opacity="0.5" stroke-width="2" stroke-linecap="round" stroke-linejoin="round"/>
<path d="M12.5 32.5C13.8807 32.5 15 31.3807 15 30C15 28.6193 13.8807 27.5 12.5 27.5C11.1193 27.5 10 28.6193 10 30C10 31.3807 11.1193 32.5 12.5 32.5Z" stroke="black" stroke-opacity="0.5" stroke-width="2" stroke-linecap="round" stroke-linejoin="round"/>
</svg>
